<svg version="1" xmlns="http://www.w3.org/2000/svg" width="346.667" height="346.667" viewBox="0 0 260.000000 260.000000"><path d="M113.6 1.1C57.5 8.8 14.2 49.7 2.3 106c-2.4 11.7-2.4 36.3 0 48 11.3 53.7 50 92.4 103.7 103.7 11.7 2.4 36.3 2.4 48 0 53.7-11.3 92.4-50 103.7-103.7 2.4-11.7 2.4-36.3 0-48-11.3-53.4-50.3-92.6-103.2-103.5-9.6-2-31.4-2.8-40.9-1.4zM234 95.3c3 1.4 6.5 3.4 7.8 4.4l2.3 1.9-3.2 3.9c-1.7 2.2-3.6 4.8-4.3 5.7-1.1 1.6-1.6 1.5-6.3-.8-11.1-5.5-23.4-1.4-18 5.9.6 1 6.1 3.8 12.2 6.3 6 2.4 12.4 5.6 14.3 7.1 6.7 5.1 9.1 16.4 5.3 24.9-2.5 5.4-9 10.8-15.8 12.9-10.9 3.5-27.2.2-36.3-7.2l-2.4-2.1 5.2-6 5.3-6.1 5 3.1c8.1 5.1 19.8 5.2 22.1.3 1.9-4.1-.9-6.7-12.3-11.6-5.6-2.4-12-5.6-14-7.1-11.3-8.2-10.5-25.4 1.5-33.6 6.5-4.3 9.8-5.2 18.6-4.8 5.6.2 8.9.9 13 2.9zm-171 5.2v7.5H34v14h25v15H34v16h30v15H15V93h48v7.5zm102.8 12.6c10.9 5.4 15.6 13.4 15.7 26.5 0 7-.4 8.8-3 13.9-10.7 20.9-38.6 20.6-49.6-.5-2-3.7-2.4-6-2.4-13.5s.4-9.8 2.4-13.7c7.3-14.2 23.1-19.7 36.9-12.7zM91.5 120c2.5 4.9 4.7 9 4.9 9 .1 0 1.8-4.1 3.7-9l3.3-9H122.1l-1.7 3.2c-.9 1.8-4.6 8.4-8.1 14.7l-6.3 11.4 7.2 11.6c3.9 6.4 7.8 12.6 8.6 13.9l1.5 2.3-9.8-.3-9.8-.3-4.7-8.3c-2.6-4.6-5.1-8.3-5.6-8.4-.4 0-2.4 3.8-4.4 8.4l-3.6 8.3-9.2.3c-5.1.1-9.2.1-9.2-.2 0-.3 3.7-6.7 8.1-14.3 4.5-7.6 8.2-14.3 8.2-14.9 0-.6-3.4-6.8-7.6-13.8-4.2-7-7.7-12.9-7.7-13.2 0-.2 4.3-.4 9.5-.4H87l4.5 9z"/><path d="M149.2 125.7c-6.3 2.5-6.1 25.2.3 27.7 3.8 1.4 8.2.6 10.6-2 2.2-2.3 2.4-3.4 2.4-11.9s-.2-9.6-2.4-11.9c-2.4-2.5-7.3-3.4-10.9-1.9z"/></svg>